<svg xmlns="http://www.w3.org/2000/svg" xmlns:xlink="http://www.w3.org/1999/xlink" id="svg" fill="#95a3aa" xml:space="preserve" width="3.7in" height="1.9in" version="1.1" style="shape-rendering:geometricPrecision; text-rendering:geometricPrecision; image-rendering:optimizeQuality; fill-rule:evenodd; clip-rule:evenodd" viewBox="0 0 3700 1900">
 <defs>
  <style type="text/css">
   <![CDATA[
    .fil0 {fill:#94A3AA}
    .fil1 {fill:#C0C8CC}
   ]]>
  </style>
 </defs>
 <g id="Layer_x0020_1">
  <metadata id="CorelCorpID_0Corel-Layer"/>
  <g id="_2155136790128">
   <path class="fil0" d="M930 1457l0 0zm-930 11l0 -37c2,-10 5,-19 10,-27 41,-63 91,-38 123,-31 -5,-10 -7,-15 -12,-28 -4,-12 -7,-16 -11,-25 -21,-58 -25,-131 -6,-190 12,-37 30,-67 52,-98 14,-20 35,-42 55,-57 34,-25 90,-49 139,-48 58,0 91,-2 134,15 36,14 67,31 97,54 13,11 25,23 35,38 9,15 20,31 21,53 -37,-3 -81,-30 -153,-6 -21,7 -41,17 -57,33 -58,58 -84,98 -84,186 0,88 78,179 165,192 99,16 130,-19 210,-47 132,-48 168,1 212,12 -1,-15 -10,-37 -14,-53 -9,-34 -20,-74 -22,-111 -3,-31 -12,-166 -10,-189 9,-110 3,-238 71,-329 20,-26 49,-48 85,-48 56,-2 65,11 90,40 0,-50 11,-109 31,-153 6,-11 11,-20 15,-31 20,-50 70,-93 120,-110 96,-33 148,77 124,127 36,0 65,-8 89,-21 10,-6 27,-15 35,-21 94,-77 73,-122 73,-191 -22,1 -46,26 -84,26 -30,0 -61,-16 -77,-32 -23,-22 -31,-43 -37,-74 -10,-60 33,-110 84,-130 117,-46 229,26 267,139 19,54 16,138 0,194l-22 62c-3,8 -5,10 -9,17 -8,14 -13,23 -22,34 -27,35 -32,36 -51,59 -23,28 -91,72 -123,95 -11,8 -22,11 -33,19 -59,41 -174,94 -243,144l-64 46c-18,12 -28,27 -44,39 -16,12 -26,27 -40,41 -33,33 -65,95 -80,139 -9,27 -18,59 -19,92 -1,19 -5,30 -3,53 7,80 29,139 76,197 37,46 74,69 121,99 43,28 103,52 153,64 -7,11 -34,37 -45,45 -61,46 -110,72 -195,65 -102,-9 -102,-7 -93,-32 5,-13 6,-20 14,-31 14,-19 20,-31 45,-41 17,-7 43,-19 67,-19 -6,-9 -24,-18 -36,-25 -13,-8 -22,-13 -35,-21 -21,-14 -52,-28 -77,-40 -63,-32 -213,-86 -239,29 -26,116 144,148 144,3 12,3 27,13 36,21 44,44 39,130 -5,174 -4,4 -3,2 -7,7 -55,58 -172,61 -233,24 -63,-38 -95,-107 -95,-182l-36 40c-42,40 -80,52 -140,50 -17,-1 -17,-4 -34,-4l0 -6c30,-7 47,-27 66,-44 11,-10 17,-17 23,-31 6,-11 11,-27 11,-42 -45,1 -82,27 -217,17 -72,-6 -140,-22 -189,-51 -30,-18 -41,-29 -65,-55 -14,-17 -28,-45 -32,-73z" style="&#10;    fill: white;&#10;"/>
   <path class="fil0" d="M1920 363c0,70 7,135 38,196 27,55 71,100 118,138 33,26 69,54 107,74l148 85c60,33 132,81 185,125 45,38 90,90 117,142 43,81 47,136 47,227 0,48 -25,95 -41,129 -8,19 -22,33 -34,49 -24,31 -57,59 -90,81 -50,34 -119,67 -178,81 16,25 56,57 82,74 18,11 33,20 54,26 54,15 111,10 166,2 6,0 28,-1 28,-9 0,-39 -31,-73 -61,-86 -21,-10 -43,-20 -69,-20 3,-3 -1,0 5,-5l145 -81c46,-23 103,-41 156,-41 79,0 108,106 65,148 -31,29 -83,29 -108,-4 -14,-19 -17,-37 -17,-71 -44,4 -66,59 -66,100 0,137 147,175 254,135 18,-7 32,-17 45,-29 24,-24 37,-32 52,-74 5,-16 9,-22 12,-39 2,-12 6,-34 7,-46 10,7 16,22 25,31 46,45 81,56 148,56 19,0 20,-4 37,-4l0 -6c-50,-12 -100,-63 -100,-117 48,4 71,20 166,20 100,0 188,-18 257,-67 34,-24 80,-70 80,-116 0,-41 -6,-75 -45,-95 -28,-15 -62,-13 -88,1 2,-10 9,-23 13,-33 4,-13 7,-21 12,-35 23,-68 18,-145 -11,-209 -9,-22 -10,-26 -23,-44l-58 -66 -44 -29c-65,-39 -174,-41 -246,-13l-47 22c-17,8 -59,39 -70,53 -16,20 -27,43 -33,68 18,-2 31,-9 52,-12 80,-12 132,9 186,64 58,61 75,159 39,234 -6,12 -10,24 -17,34 -39,55 -101,90 -173,90 -31,0 -58,-5 -84,-17 -111,-50 -177,-83 -296,-20 5,-23 14,-45 19,-67 5,-27 11,-44 15,-72 18,-130 24,-339 -16,-459 -18,-52 -55,-135 -122,-135 -81,0 -48,7 -96,40 0,-37 -6,-80 -14,-110 -4,-13 -10,-32 -16,-44 -31,-69 -85,-146 -170,-146 -47,0 -87,44 -87,90l0 43c-28,0 -62,-8 -84,-19 -21,-11 -39,-22 -55,-38 -18,-18 -27,-27 -40,-51 -30,-55 -19,-71 -14,-125 28,6 47,26 80,26 30,0 66,-18 82,-34 25,-25 34,-55 34,-92 0,-42 -24,-70 -47,-89 -23,-19 -71,-38 -103,-38 -31,0 -64,11 -86,20 -36,15 -64,47 -87,77 -10,13 -11,22 -19,37 -12,24 -21,55 -21,89z" style="&#10;    fill: white;&#10;"/>
   <path class="fil0" d="M1237 1500c0,39 32,64 58,82 124,82 356,111 502,111 185,0 210,1 391,-32 21,-3 36,-6 52,-11l49 -15c87,-30 53,-15 129,-61 15,-8 19,-20 29,-33 38,-50 -7,-104 -36,-122 -18,-11 -65,-38 -84,-42 -46,30 -91,41 -156,54 -216,44 -493,10 -683,-62 -46,-18 -30,-31 -130,12 -44,18 -121,62 -121,119z" style="&#10;    fill: white;&#10;"/>
   <path class="fil0" d="M1360 1207c0,57 57,88 102,111 13,6 21,11 34,16l114 36c179,45 420,61 597,17 51,-13 156,-40 156,-110 0,-67 -126,-117 -178,-135 -90,-31 -78,-23 -154,-5 -144,35 -325,41 -467,-7 -58,-20 -14,-39 -133,1 -27,10 -71,40 -71,76z" style="&#10;    fill: white;&#10;"/>
   <path class="fil1" d="M1507 1033c0,51 104,74 143,80 106,18 254,15 357,-9 17,-4 31,-8 46,-11 36,-6 140,-46 140,-86 0,-32 -17,-44 -53,-60 -16,-7 -61,-20 -83,-20 -21,0 -42,42 -137,46 -201,9 -196,-44 -232,-39 -14,2 -24,7 -37,10 -27,7 -81,25 -102,39 -12,8 -42,33 -42,50z" style="&#10;    fill: white;&#10;"/>
   <path class="fil0" d="M1647 823c0,55 71,94 118,106 14,3 23,6 37,9 60,13 133,12 189,-10 133,-52 42,-188 -184,-188 -36,0 -75,9 -100,20 -17,7 -25,10 -38,22 -9,9 -22,26 -22,41z" style="&#10;    fill: white;&#10;"/>
   <path class="fil0" d="M1747 100c0,92 106,140 171,81l23 -26c15,-23 12,-42 12,-68 0,-40 -47,-87 -86,-87l-2 0 -16 0c-30,0 -47,3 -74,32 -9,10 -14,14 -19,27 -5,11 -9,26 -9,41z" style="&#10;    fill: white;&#10;"/>
   <path class="fil0" d="M1850 1900c20,0 71,-46 86,-61 25,-24 45,-57 54,-96 -26,0 -39,4 -67,4 -28,0 -46,3 -70,3l-140 -7c2,70 109,157 137,157z" style="&#10;    fill: white;&#10;"/>
   <path class="fil0" d="M2887 1250c0,46 3,72 13,113 20,-5 76,-77 90,-96 41,-57 41,-127 3,-186 -9,-14 -18,-25 -26,-38 -26,17 -42,57 -55,89 -14,35 -25,71 -25,118z" style="&#10;    fill: white;&#10;"/>
   <path class="fil0" d="M677 1170c0,65 41,116 83,160 1,0 2,1 2,1 12,13 22,28 38,32 0,-14 5,-27 7,-43 12,-90 2,-133 -32,-215 -8,-18 -26,-57 -45,-62l-26 41c-12,23 -27,56 -27,86z" style="&#10;    fill: white;&#10;"/>
   <path class="fil0" d="M2053 1737c62,92 203,110 307,110 -3,-7 -4,-14 -6,-21 -14,-42 -56,-93 -96,-111 -19,-8 -72,7 -95,11 -35,6 -70,11 -110,11z" style="&#10;    fill: white;&#10;"/>
   <path class="fil0" d="M1343 1847c81,0 192,-15 252,-59 11,-8 45,-28 52,-51 -43,0 -113,-10 -155,-19 -45,-9 -39,-9 -81,19 -14,10 -21,16 -30,31 -14,23 -35,46 -38,79z" style="&#10;    fill: white;&#10;"/>
   <path class="fil0" d="M2953 1370c29,2 52,10 97,10 52,0 101,0 142,-25 42,-25 45,-54 45,-95 -50,-13 -167,16 -208,39 -16,8 -17,9 -30,20 -18,13 -40,28 -46,51z" style="&#10;    fill: white;&#10;"/>
   <path class="fil0" d="M463 1260c-1,13 -3,8 -3,17 0,113 161,106 240,100 19,-2 30,-7 47,-7 -23,-44 -68,-71 -114,-86 -35,-12 -138,-36 -170,-24z" style="&#10;    fill: white;&#10;"/>
  </g>
 </g>
</svg>